<svg width="14" height="4" viewBox="0 0 14 4" fill="none" xmlns="http://www.w3.org/2000/svg">
    <path d="M0.412656 1.92C0.412656 1.42667 0.532656 1.08 0.772656 0.88C1.01266 0.68 1.29932 0.58 1.63266 0.58C1.97932 0.58 2.27266 0.68 2.51266 0.88C2.76599 1.08 2.89266 1.42667 2.89266 1.92C2.89266 2.4 2.76599 2.74667 2.51266 2.96C2.27266 3.17333 1.97932 3.28 1.63266 3.28C1.29932 3.28 1.01266 3.17333 0.772656 2.96C0.532656 2.74667 0.412656 2.4 0.412656 1.92ZM5.76422 1.92C5.76422 1.42667 5.88422 1.08 6.12422 0.88C6.36422 0.68 6.65089 0.58 6.98422 0.58C7.33089 0.58 7.62422 0.68 7.86422 0.88C8.11755 1.08 8.24422 1.42667 8.24422 1.92C8.24422 2.4 8.11755 2.74667 7.86422 2.96C7.62422 3.17333 7.33089 3.28 6.98422 3.28C6.65089 3.28 6.36422 3.17333 6.12422 2.96C5.88422 2.74667 5.76422 2.4 5.76422 1.92ZM11.1158 1.92C11.1158 1.42667 11.2358 1.08 11.4758 0.88C11.7158 0.68 12.0024 0.58 12.3358 0.58C12.6824 0.58 12.9758 0.68 13.2158 0.88C13.4691 1.08 13.5958 1.42667 13.5958 1.92C13.5958 2.4 13.4691 2.74667 13.2158 2.96C12.9758 3.17333 12.6824 3.28 12.3358 3.28C12.0024 3.28 11.7158 3.17333 11.4758 2.96C11.2358 2.74667 11.1158 2.4 11.1158 1.92Z"
          fill="black"/>
</svg>
