<svg width="100" height="94" viewBox="0 0 100 94" fill="none" xmlns="http://www.w3.org/2000/svg">
    <path d="M10.8788 57.059C16.4343 57.059 20.9378 52.5554 20.9378 47C20.9378 41.4445 16.4343 36.941 10.8788 36.941C5.32339 36.941 0.819824 41.4445 0.819824 47C0.819824 52.5554 5.32339 57.059 10.8788 57.059Z"
          fill="#2F3435"/>
    <path d="M10.8778 93.149C16.4333 93.149 20.9368 88.6454 20.9368 83.09C20.9368 77.5346 16.4333 73.031 10.8778 73.031C5.32242 73.031 0.818848 77.5346 0.818848 83.09C0.818848 88.6454 5.32242 93.149 10.8778 93.149Z"
          fill="#2F3435"/>
    <path d="M10.8788 20.968C16.4337 20.968 20.9368 16.4649 20.9368 10.91C20.9368 5.35511 16.4337 0.85199 10.8788 0.85199C5.32392 0.85199 0.820801 5.35511 0.820801 10.91C0.820801 16.4649 5.32392 20.968 10.8788 20.968Z"
          fill="#2F3435"/>
    <path d="M34.6816 10.91H99.1826" stroke="#2F3435" stroke-width="14.3337" stroke-miterlimit="10"/>
    <path d="M34.6816 47H99.1826" stroke="#2F3435" stroke-width="14.3337" stroke-miterlimit="10"/>
    <path d="M34.6816 83.09H99.1826" stroke="#2F3435" stroke-width="14.3337" stroke-miterlimit="10"/>
</svg>
