<svg width="24" height="24" viewBox="0 0 24 24" fill="none" xmlns="http://www.w3.org/2000/svg">
    <path d="M9.92 15.5901L7.33 13.0001H17V11.0001H7.33L9.92 8.41012L8.5 7.00012L3.5 12.0001L8.5 17.0001L9.92 15.5901ZM5 3.00012C4.46957 3.00012 3.96086 3.21084 3.58579 3.58591C3.21071 3.96098 3 4.46969 3 5.00012V9.67012L5 7.67012V5.00012H19V19.0001H5V16.3301L3 14.3301V19.0001C3 19.5306 3.21071 20.0393 3.58579 20.4143C3.96086 20.7894 4.46957 21.0001 5 21.0001H19C20.11 21.0001 21 20.1001 21 19.0001V5.00012C21 3.89012 20.11 3.00012 19 3.00012H5Z"
          fill="#A6A6A6"/>
</svg>
