<svg width="32" height="32" viewBox="0 0 32 32" fill="none" xmlns="http://www.w3.org/2000/svg">
    <path d="M16 25.6C12.6666 25.6 9.71996 23.8933 7.99996 21.3333C8.03996 18.6667 13.3333 17.2 16 17.2C18.6666 17.2 23.96 18.6667 24 21.3333C22.28 23.8933 19.3333 25.6 16 25.6ZM16 6.66666C17.0608 6.66666 18.0782 7.08808 18.8284 7.83823C19.5785 8.58838 20 9.60579 20 10.6667C20 11.7275 19.5785 12.7449 18.8284 13.4951C18.0782 14.2452 17.0608 14.6667 16 14.6667C14.9391 14.6667 13.9217 14.2452 13.1715 13.4951C12.4214 12.7449 12 11.7275 12 10.6667C12 9.60579 12.4214 8.58838 13.1715 7.83823C13.9217 7.08808 14.9391 6.66666 16 6.66666ZM16 2.66666C14.249 2.66666 12.5152 3.01153 10.8975 3.6816C9.27984 4.35166 7.80998 5.33379 6.57187 6.5719C4.07138 9.07238 2.66663 12.4638 2.66663 16C2.66663 19.5362 4.07138 22.9276 6.57187 25.4281C7.80998 26.6662 9.27984 27.6483 10.8975 28.3184C12.5152 28.9884 14.249 29.3333 16 29.3333C19.5362 29.3333 22.9276 27.9286 25.4281 25.4281C27.9285 22.9276 29.3333 19.5362 29.3333 16C29.3333 8.62666 23.3333 2.66666 16 2.66666Z"
          fill="#A6A6A6"/>
</svg>
