<svg width="21" height="20" viewBox="0 0 21 20" fill="none" xmlns="http://www.w3.org/2000/svg">
    <path fill-rule="evenodd" clip-rule="evenodd"
          d="M8.18408 3.99997C7.12322 3.99997 6.1058 4.4214 5.35565 5.17155C4.60551 5.92169 4.18408 6.93911 4.18408 7.99997C4.18408 9.06084 4.60551 10.0783 5.35565 10.8284C6.1058 11.5785 7.12322 12 8.18408 12C9.24495 12 10.2624 11.5785 11.0125 10.8284C11.7627 10.0783 12.1841 9.06084 12.1841 7.99997C12.1841 6.93911 11.7627 5.92169 11.0125 5.17155C10.2624 4.4214 9.24495 3.99997 8.18408 3.99997ZM2.18408 7.99997C2.18396 7.05568 2.40672 6.12468 2.83425 5.28271C3.26178 4.44074 3.882 3.71157 4.64448 3.1545C5.40695 2.59743 6.29014 2.22819 7.22223 2.07681C8.15431 1.92543 9.10896 1.99618 10.0085 2.28332C10.9081 2.57046 11.7272 3.06587 12.3992 3.72927C13.0713 4.39266 13.5772 5.20531 13.8759 6.10111C14.1747 6.9969 14.2577 7.95056 14.1184 8.88452C13.9791 9.81848 13.6213 10.7064 13.0741 11.476L17.8911 16.293C18.0732 16.4816 18.174 16.7342 18.1718 16.9964C18.1695 17.2586 18.0643 17.5094 17.8789 17.6948C17.6935 17.8802 17.4427 17.9854 17.1805 17.9876C16.9183 17.9899 16.6657 17.8891 16.4771 17.707L11.6611 12.891C10.7634 13.5293 9.70743 13.9081 8.60876 13.9861C7.51009 14.0641 6.41115 13.8381 5.43238 13.3329C4.45361 12.8278 3.63277 12.063 3.05981 11.1223C2.48684 10.1816 2.18387 9.10141 2.18408 7.99997Z"
          fill="#6B7280"/>
</svg>
