<svg width="97" height="30" viewBox="0 0 97 30" fill="none" xmlns="http://www.w3.org/2000/svg">
    <path d="M49.04 26H46.448V11.096H41.312V8.864H54.176V11.096H49.04V26ZM66.2279 19.52C66.2279 20.592 66.0839 21.544 65.7959 22.376C65.5079 23.208 65.0999 23.912 64.5719 24.488C64.0439 25.064 63.4039 25.504 62.6519 25.808C61.8999 26.096 61.0519 26.24 60.1079 26.24C59.2439 26.24 58.4439 26.096 57.7079 25.808C56.9719 25.504 56.3319 25.064 55.7879 24.488C55.2599 23.912 54.8439 23.208 54.5399 22.376C54.2359 21.544 54.0839 20.584 54.0839 19.496C54.0839 18.072 54.3239 16.864 54.8039 15.872C55.2999 14.88 56.0039 14.128 56.9159 13.616C57.8439 13.088 58.9319 12.824 60.1799 12.824C61.3639 12.824 62.4039 13.088 63.2999 13.616C64.2119 14.128 64.9239 14.88 65.4359 15.872C65.9639 16.864 66.2279 18.08 66.2279 19.52ZM56.6999 19.52C56.6999 20.48 56.8199 21.312 57.0599 22.016C57.2999 22.704 57.6759 23.232 58.1879 23.6C58.6999 23.968 59.3559 24.152 60.1559 24.152C60.9559 24.152 61.6119 23.968 62.1239 23.6C62.6359 23.232 63.0119 22.704 63.2519 22.016C63.4919 21.312 63.6119 20.48 63.6119 19.52C63.6119 18.528 63.4839 17.696 63.2279 17.024C62.9879 16.352 62.6119 15.84 62.0999 15.488C61.6039 15.12 60.9479 14.936 60.1319 14.936C58.9319 14.936 58.0599 15.336 57.5159 16.136C56.9719 16.936 56.6999 18.064 56.6999 19.52ZM73.8929 26.24C72.3409 26.24 71.0849 25.68 70.1249 24.56C69.1809 23.44 68.7089 21.776 68.7089 19.568C68.7089 17.344 69.1889 15.664 70.1489 14.528C71.1089 13.392 72.3729 12.824 73.9409 12.824C74.5969 12.824 75.1649 12.912 75.6449 13.088C76.1409 13.248 76.5649 13.472 76.9169 13.76C77.2849 14.048 77.5969 14.368 77.8529 14.72H77.9969C77.9649 14.496 77.9249 14.176 77.8769 13.76C77.8289 13.328 77.8049 12.944 77.8049 12.608V7.76H80.3489V26H78.3569L77.9249 24.272H77.8049C77.5649 24.64 77.2609 24.976 76.8929 25.28C76.5409 25.568 76.1169 25.8 75.6209 25.976C75.1249 26.152 74.5489 26.24 73.8929 26.24ZM74.4929 24.152C75.7409 24.152 76.6209 23.808 77.1329 23.12C77.6449 22.416 77.9009 21.368 77.9009 19.976V19.592C77.9009 18.072 77.6529 16.912 77.1569 16.112C76.6769 15.312 75.7809 14.912 74.4689 14.912C73.4289 14.912 72.6449 15.336 72.1169 16.184C71.5889 17.016 71.3249 18.16 71.3249 19.616C71.3249 21.072 71.5889 22.192 72.1169 22.976C72.6449 23.76 73.4369 24.152 74.4929 24.152ZM95.7358 19.52C95.7358 20.592 95.5918 21.544 95.3038 22.376C95.0158 23.208 94.6078 23.912 94.0798 24.488C93.5518 25.064 92.9118 25.504 92.1598 25.808C91.4078 26.096 90.5598 26.24 89.6158 26.24C88.7518 26.24 87.9518 26.096 87.2158 25.808C86.4798 25.504 85.8398 25.064 85.2958 24.488C84.7678 23.912 84.3518 23.208 84.0478 22.376C83.7438 21.544 83.5918 20.584 83.5918 19.496C83.5918 18.072 83.8318 16.864 84.3118 15.872C84.8078 14.88 85.5118 14.128 86.4238 13.616C87.3518 13.088 88.4398 12.824 89.6878 12.824C90.8718 12.824 91.9118 13.088 92.8078 13.616C93.7198 14.128 94.4318 14.88 94.9438 15.872C95.4718 16.864 95.7358 18.08 95.7358 19.52ZM86.2078 19.52C86.2078 20.48 86.3278 21.312 86.5678 22.016C86.8078 22.704 87.1838 23.232 87.6958 23.6C88.2078 23.968 88.8638 24.152 89.6638 24.152C90.4638 24.152 91.1198 23.968 91.6318 23.6C92.1438 23.232 92.5198 22.704 92.7598 22.016C92.9998 21.312 93.1198 20.48 93.1198 19.52C93.1198 18.528 92.9918 17.696 92.7358 17.024C92.4958 16.352 92.1198 15.84 91.6078 15.488C91.1118 15.12 90.4558 14.936 89.6398 14.936C88.4398 14.936 87.5678 15.336 87.0238 16.136C86.4798 16.936 86.2078 18.064 86.2078 19.52Z"
          fill="#797979"/>
    <path d="M26.591 4.35142C26.8395 4.01134 27.0994 4 27.4609 4L31.607 4.02267C32.1606 4.02267 32.7593 4.54413 32.5673 5.0996L17.1351 27.4544C16.6945 28.0553 16.1635 27.9986 15.802 27.9986L11.396 27.9759C11.0684 27.9759 10.6504 27.4431 11.0006 26.933L26.591 4.35142Z"
          fill="#FCD000"/>
    <path d="M16.6082 26.8895C16.9042 27.6034 16.7107 28 16.3919 28H11.2009C10.8594 28 10.5634 27.7734 10.4496 27.4448L0.0447463 5.11048C-0.137395 4.55524 0.261036 4 0.796076 4H5.24715C5.58866 4 5.88465 4.22663 6.02125 4.55524L16.6082 26.8895Z"
          fill="black"/>
    <path d="M30.195 26.8895C30.4874 27.6034 30.2962 28 29.9814 28H24.5618C24.247 28 23.9321 27.7734 23.8197 27.4448L13.1829 5.11048C12.9918 4.55524 13.3628 4 13.925 4H18.625C18.9736 4 19.2547 4.22663 19.3671 4.55524L30.195 26.8895Z"
          fill="black"/>
    <path d="M35.041 9.2282C35.4282 10.1128 34.9415 10.3396 34.6207 10.3396H30.2403C29.9305 10.3396 29.4106 10.1468 29.2558 9.78391L26.7337 5.11142C26.3908 4.41962 26.6563 4 27.1983 4H31.5234C31.8663 4 32.3309 4.1928 32.5079 4.55571L35.041 9.2282Z"
          fill="black"/>
</svg>
